<svg xmlns="http://www.w3.org/2000/svg" xmlns:xlink="http://www.w3.org/1999/xlink" width="500" zoomAndPan="magnify" viewBox="0 0 375 374.999991" height="500" preserveAspectRatio="xMidYMid meet" version="1.0"><path fill="#1db954" d="M 184.753906 90.085938 C 168.785156 91.148438 154.539062 97.082031 142.492188 107.738281 C 127.183594 121.214844 118.652344 140.222656 118.652344 160.839844 C 118.652344 176.769531 123.707031 191.746094 133.445312 204.636719 C 143.1875 217.492188 157.398438 226.867188 172.703125 230.457031 C 179.078125 231.957031 182.664062 232.359375 184.203125 231.703125 C 186.695312 230.640625 189.917969 227.929688 191.453125 225.585938 C 193.433594 222.65625 194.3125 219.652344 195.042969 213.71875 C 195.996094 205.882812 197.605469 201.378906 201.269531 196.289062 C 203.285156 193.503906 207.566406 189.988281 211.632812 187.867188 C 215.039062 186.035156 215.113281 186 213.5 186.179688 C 207.566406 186.878906 199.695312 191.601562 195.375 197.058594 C 193.140625 199.878906 190.796875 203.613281 190.796875 204.34375 C 190.757812 204.75 190.648438 204.710938 190.246094 204.199219 C 189.625 203.355469 189.515625 203.6875 190.0625 204.710938 C 190.320312 205.222656 190.28125 205.554688 189.878906 205.957031 C 189.585938 206.25 189.332031 206.800781 189.332031 207.164062 C 189.292969 207.859375 189.148438 207.566406 186.988281 203.429688 C 184.679688 198.851562 176.625 190.429688 174.609375 190.429688 C 174.242188 190.429688 173.949219 190.246094 173.949219 190.0625 C 173.949219 189.84375 173.730469 189.695312 173.4375 189.695312 C 173.144531 189.695312 172.851562 189.585938 172.777344 189.402344 C 172.339844 188.378906 159.300781 183.65625 159.300781 184.535156 C 159.300781 184.679688 159.777344 185.046875 160.328125 185.375 C 162.925781 186.914062 171.019531 195.921875 171.019531 197.277344 C 171.019531 197.425781 170.398438 197.605469 169.628906 197.644531 C 168.894531 197.71875 167.210938 197.9375 165.894531 198.191406 C 164.574219 198.449219 161.277344 198.632812 158.53125 198.667969 L 153.550781 198.667969 L 154.796875 200.207031 C 158.238281 204.417969 165.417969 208.667969 171.972656 210.386719 C 173.144531 210.679688 175.597656 211.046875 177.355469 211.195312 L 180.578125 211.414062 L 180.359375 210.351562 C 179.441406 206.359375 178.929688 204.785156 177.648438 202.183594 C 176.804688 200.574219 175.378906 198.304688 174.460938 197.167969 C 172.960938 195.335938 172.886719 195.152344 173.839844 195.847656 C 177.136719 198.191406 180.980469 204.308594 182.777344 210.023438 C 183.472656 212.253906 184.460938 221.082031 184.058594 221.484375 C 183.617188 221.886719 177.539062 220.789062 173.289062 219.507812 C 168.457031 218.042969 162.414062 215.296875 157.835938 212.402344 C 146.117188 205.042969 136.890625 193.210938 132.605469 180.066406 C 130.152344 172.558594 129.820312 170.140625 129.820312 160.765625 C 129.859375 153.296875 129.929688 152.125 130.808594 148.132812 C 132.457031 140.367188 135.609375 133.191406 140.40625 126.160156 C 143.078125 122.203125 149.78125 115.394531 154.359375 111.949219 C 160.21875 107.519531 169.226562 103.5625 177.503906 101.734375 C 180.542969 101.039062 182.300781 100.925781 188.964844 100.925781 C 195.886719 100.890625 197.277344 101 200.609375 101.734375 C 205.738281 102.867188 209.289062 104.113281 213.867188 106.273438 C 219.945312 109.128906 224.523438 112.28125 229.90625 117.371094 C 239.207031 126.121094 245.398438 137.804688 247.777344 151.0625 C 248.582031 155.53125 248.695312 165.492188 247.960938 169.554688 C 247.300781 173.4375 245.875 178.929688 244.773438 182.078125 C 243.382812 186.035156 239.832031 192.699219 237.011719 196.65625 C 233.753906 201.269531 226.683594 208.335938 222.472656 211.121094 C 218.296875 213.902344 212.035156 217.054688 207.933594 218.445312 L 204.75 219.507812 L 204.125 222.253906 C 203.796875 223.753906 202.992188 226.429688 202.332031 228.148438 C 201.671875 229.871094 201.195312 231.296875 201.234375 231.371094 C 201.453125 231.628906 207.605469 229.980469 211.230469 228.699219 C 239.207031 218.921875 257.410156 194.566406 259.460938 164.0625 C 259.9375 156.8125 258.433594 146.082031 255.761719 138.0625 C 252.246094 127.40625 244.335938 115.28125 236.277344 108.105469 C 221.628906 95.140625 203.578125 88.84375 184.753906 90.085938 Z M 184.753906 90.085938 " fill-opacity="1" fill-rule="nonzero"/><path fill="#1db954" d="M 182.921875 118.503906 C 177.136719 119.382812 170.765625 121.324219 166.113281 123.667969 C 160.144531 126.671875 153.148438 132.128906 152.125 134.65625 C 150.621094 138.207031 152.929688 142.089844 156.519531 142.089844 C 158.3125 142.089844 159.519531 141.429688 162.488281 138.757812 C 169.261719 132.714844 176.074219 129.785156 185.59375 128.832031 C 196.691406 127.660156 207.933594 131.46875 216.175781 139.125 C 218.882812 141.6875 219.617188 142.089844 221.375 142.089844 C 224.230469 142.089844 226.683594 139.78125 226.683594 137.109375 C 226.683594 134.910156 226.0625 133.8125 223.386719 131.359375 C 217.492188 125.902344 209.730469 121.765625 201.121094 119.496094 C 198.046875 118.6875 196.65625 118.542969 190.796875 118.46875 C 187.058594 118.394531 183.542969 118.433594 182.921875 118.503906 Z M 182.921875 118.503906 " fill-opacity="1" fill-rule="nonzero"/><path fill="#1db954" d="M 184.242188 137.769531 C 176.953125 138.792969 167.980469 143.664062 166.40625 147.472656 C 165.308594 150 166.148438 152.855469 168.347656 154.210938 C 170.359375 155.457031 172.667969 155.054688 175.339844 153.003906 C 179.664062 149.671875 182.738281 148.425781 187.792969 148.09375 C 193.394531 147.691406 197.605469 148.972656 202.222656 152.453125 C 204.785156 154.359375 205.445312 154.6875 207.054688 154.796875 C 210.058594 155.015625 212.253906 153.222656 212.660156 150.21875 C 213.0625 147.105469 210.167969 143.921875 204.164062 140.917969 C 197.828125 137.769531 191.417969 136.742188 184.242188 137.769531 Z M 184.242188 137.769531 " fill-opacity="1" fill-rule="nonzero"/><path fill="#1db954" d="M 185.484375 158.347656 C 182.152344 159.925781 180.433594 162.632812 180.433594 166.257812 C 180.433594 174.242188 189.808594 177.90625 195.554688 172.15625 C 199.070312 168.601562 199 163.476562 195.375 159.960938 C 192.738281 157.433594 188.78125 156.773438 185.484375 158.347656 Z M 185.484375 158.347656 " fill-opacity="1" fill-rule="nonzero"/><path fill="#1db954" d="M 158.496094 173.109375 C 158.753906 173.21875 159.082031 173.179688 159.191406 173.070312 C 159.339844 172.960938 159.117188 172.851562 158.714844 172.886719 C 158.3125 172.886719 158.203125 172.996094 158.496094 173.109375 Z M 158.496094 173.109375 " fill-opacity="1" fill-rule="nonzero"/><path fill="#1db954" d="M 176.511719 180.320312 C 176.511719 180.394531 176.804688 180.6875 177.171875 180.945312 C 177.722656 181.421875 177.757812 181.382812 177.28125 180.796875 C 176.804688 180.210938 176.511719 180.027344 176.511719 180.320312 Z M 176.511719 180.320312 " fill-opacity="1" fill-rule="nonzero"/><path fill="#1db954" d="M 214.597656 188.671875 C 208.335938 193.652344 204.859375 200.171875 204.125 208.300781 L 203.871094 211.046875 L 205.296875 210.753906 C 208.886719 210.09375 213.867188 207.933594 217.640625 205.371094 C 220.019531 203.757812 224.414062 199.769531 224.121094 199.476562 C 224.011719 199.363281 222.105469 199.070312 219.910156 198.851562 C 215.625 198.375 211.011719 197.605469 210.679688 197.277344 C 210.460938 197.019531 213.246094 191.929688 214.378906 190.503906 C 215.625 188.929688 217.199219 186.765625 217.089844 186.765625 C 217.015625 186.765625 215.917969 187.609375 214.597656 188.671875 Z M 214.597656 188.671875 " fill-opacity="1" fill-rule="nonzero"/><path fill="#1db954" d="M 186.4375 195.410156 C 186.4375 195.8125 186.546875 195.921875 186.65625 195.628906 C 186.765625 195.375 186.730469 195.042969 186.621094 194.933594 C 186.511719 194.789062 186.402344 195.007812 186.4375 195.410156 Z M 186.4375 195.410156 " fill-opacity="1" fill-rule="nonzero"/><path fill="#1db954" d="M 75.804688 269.164062 L 75.804688 288.207031 L 102.539062 288.207031 L 102.539062 280.882812 L 100.269531 280.847656 C 98.988281 280.847656 94.773438 280.847656 90.929688 280.882812 L 83.863281 280.957031 L 83.863281 272.828125 L 101.441406 272.828125 L 101.441406 265.941406 L 100.269531 265.722656 C 99.644531 265.613281 95.691406 265.613281 91.480469 265.722656 L 83.863281 265.980469 L 83.863281 257.8125 L 102.171875 257.8125 L 102.171875 250.121094 L 75.804688 250.121094 Z M 75.804688 269.164062 " fill-opacity="1" fill-rule="nonzero"/><path fill="#1db954" d="M 163.734375 251.074219 C 160.914062 253.453125 162.597656 258.179688 166.296875 258.179688 C 167.980469 258.179688 170.105469 256.53125 170.472656 254.917969 C 171.238281 251.332031 166.589844 248.65625 163.734375 251.074219 Z M 163.734375 251.074219 " fill-opacity="1" fill-rule="nonzero"/><path fill="#1db954" d="M 217.347656 264.292969 C 217.417969 272.132812 217.492188 280.699219 217.492188 283.335938 L 217.527344 288.207031 L 239.867188 288.207031 L 239.867188 280.882812 L 237.597656 280.847656 C 236.316406 280.847656 233.019531 280.847656 230.273438 280.882812 L 225.21875 280.957031 L 225.21875 279.710938 C 225.21875 279.050781 225.21875 272.132812 225.21875 264.292969 L 225.21875 250.121094 L 217.273438 250.121094 Z M 217.347656 264.292969 " fill-opacity="1" fill-rule="nonzero"/><path fill="#1db954" d="M 244.996094 250.746094 C 242.652344 251.953125 242.394531 255.578125 244.480469 257.410156 C 245.324219 258.105469 245.800781 258.214844 247.300781 258.070312 C 249.644531 257.847656 250.855469 256.675781 251.109375 254.441406 C 251.292969 253.015625 251.183594 252.648438 250.269531 251.625 C 248.914062 250.121094 246.863281 249.792969 244.996094 250.746094 Z M 244.996094 250.746094 " fill-opacity="1" fill-rule="nonzero"/><path fill="#1db954" d="M 280.664062 263.011719 C 280.773438 270.117188 280.882812 278.6875 280.882812 282.054688 L 280.882812 288.207031 L 288.207031 288.207031 L 288.207031 285.132812 C 288.207031 282.3125 288.28125 281.980469 289.304688 280.699219 C 289.929688 279.929688 290.40625 279.164062 290.40625 278.980469 C 290.40625 278.285156 291.285156 279.273438 294.652344 283.738281 L 298.132812 288.390625 L 302.527344 288.390625 C 304.90625 288.390625 306.882812 288.28125 306.882812 288.171875 C 306.882812 288.023438 305.199219 285.71875 303.148438 283.042969 C 295.3125 272.753906 295.824219 273.558594 296.558594 272.644531 C 296.886719 272.167969 299.195312 269.496094 301.683594 266.636719 C 304.136719 263.816406 306.152344 261.402344 306.152344 261.292969 C 306.152344 261.179688 304.246094 261.109375 301.941406 261.109375 L 297.765625 261.109375 L 288.390625 271.726562 L 288.28125 260.925781 L 288.207031 250.121094 L 280.445312 250.121094 Z M 280.664062 263.011719 " fill-opacity="1" fill-rule="nonzero"/><path fill="#1db954" d="M 115.757812 261.328125 C 115.0625 261.621094 114.292969 262.132812 114 262.5 C 113.523438 263.050781 113.488281 263.011719 113.707031 262.097656 L 113.890625 261.109375 L 107.300781 261.109375 L 107.300781 272.425781 C 107.300781 278.613281 107.410156 284.730469 107.519531 285.972656 L 107.777344 288.207031 L 114.550781 288.207031 L 114.808594 283.960938 C 114.953125 281.652344 114.953125 277.953125 114.808594 275.792969 C 114.515625 270.738281 114.917969 269.019531 116.601562 268.175781 C 118.140625 267.480469 119.566406 267.847656 120.628906 269.3125 C 121.363281 270.261719 121.398438 270.886719 121.507812 279.273438 L 121.617188 288.207031 L 123.339844 288.28125 C 124.292969 288.316406 125.902344 288.316406 126.890625 288.316406 L 128.722656 288.28125 L 128.722656 278.464844 C 128.722656 271.214844 128.578125 268.175781 128.210938 266.894531 C 127.585938 264.734375 125.574219 262.316406 123.632812 261.4375 C 121.765625 260.59375 117.554688 260.523438 115.757812 261.328125 Z M 115.757812 261.328125 " fill-opacity="1" fill-rule="nonzero"/><path fill="#1db954" d="M 182.738281 261.144531 C 182.226562 261.363281 181.421875 261.878906 180.945312 262.316406 L 180.066406 263.121094 L 180.25 262.097656 L 180.433594 261.109375 L 174.316406 261.109375 L 174.316406 288.207031 L 181.273438 288.207031 L 181.273438 279.566406 C 181.273438 271.507812 181.3125 270.8125 182.007812 269.714844 C 182.847656 268.359375 184.128906 267.699219 186.21875 267.589844 L 187.644531 267.480469 L 188.085938 264.953125 C 188.855469 260.523438 188.964844 260.742188 186.144531 260.777344 C 184.753906 260.777344 183.25 260.960938 182.738281 261.144531 Z M 182.738281 261.144531 " fill-opacity="1" fill-rule="nonzero"/><path fill="#1db954" d="M 195.375 261.472656 C 193.210938 262.316406 190.136719 264.917969 188.597656 267.152344 C 186.179688 270.667969 185.777344 276.234375 187.683594 280.222656 C 188.890625 282.824219 191.859375 285.753906 194.457031 287 C 197.09375 288.28125 201.378906 288.574219 204.382812 287.695312 C 208.300781 286.558594 211.339844 283.921875 213.097656 280.152344 C 213.941406 278.394531 214.050781 277.660156 214.050781 274.292969 C 214.050781 270.847656 213.941406 270.226562 213.0625 268.394531 C 211.742188 265.757812 209.214844 263.230469 206.617188 261.949219 C 204.820312 261.070312 204.015625 260.925781 200.867188 260.851562 C 197.9375 260.777344 196.839844 260.886719 195.375 261.472656 Z M 203.648438 269.128906 C 205.628906 270.375 206.542969 272.058594 206.542969 274.511719 C 206.542969 280.371094 199.476562 282.898438 195.59375 278.464844 C 194.238281 276.964844 193.945312 275.941406 194.164062 273.558594 C 194.605469 268.910156 199.621094 266.566406 203.648438 269.128906 Z M 203.648438 269.128906 " fill-opacity="1" fill-rule="nonzero"/><path fill="#1db954" d="M 263.855469 261.363281 C 263.269531 261.65625 262.5 262.171875 262.171875 262.464844 C 261.621094 262.902344 261.585938 262.867188 261.730469 262.023438 L 261.914062 261.109375 L 255.140625 261.109375 L 255.359375 265.210938 C 255.503906 267.480469 255.613281 273.632812 255.613281 278.871094 L 255.613281 288.390625 L 262.574219 288.171875 L 262.574219 279.308594 C 262.574219 272.898438 262.71875 270.191406 263.050781 269.53125 C 264.109375 267.445312 267.261719 267.332031 268.46875 269.3125 C 269.089844 270.335938 269.164062 271.253906 269.164062 279.308594 L 269.164062 288.171875 L 272.828125 288.28125 L 276.488281 288.390625 L 276.488281 277.84375 C 276.488281 269.203125 276.378906 267.078125 275.941406 265.980469 C 274.402344 262.316406 271.875 260.742188 267.625 260.742188 C 265.90625 260.777344 264.550781 261 263.855469 261.363281 Z M 263.855469 261.363281 " fill-opacity="1" fill-rule="nonzero"/><path fill="#1db954" d="M 130.371094 261.511719 C 130.371094 261.730469 132.054688 265.394531 134.105469 269.640625 C 136.15625 273.925781 138.832031 279.527344 140.074219 282.164062 C 141.285156 284.765625 142.492188 287.253906 142.710938 287.660156 C 143.078125 288.316406 143.40625 288.390625 146.265625 288.207031 L 149.449219 288.023438 L 154.027344 277.953125 C 156.519531 272.425781 159.226562 266.492188 160.035156 264.769531 C 160.839844 263.050781 161.5 261.511719 161.5 261.363281 C 161.5 261.21875 159.742188 261.144531 157.582031 261.179688 L 153.699219 261.292969 L 150.074219 269.53125 C 148.058594 274.070312 146.300781 277.878906 146.191406 278.027344 C 146.042969 278.171875 144.359375 274.804688 142.457031 270.554688 C 140.550781 266.308594 138.792969 262.5 138.609375 262.058594 C 138.246094 261.363281 137.878906 261.292969 134.289062 261.179688 C 131.578125 261.109375 130.371094 261.21875 130.371094 261.511719 Z M 130.371094 261.511719 " fill-opacity="1" fill-rule="nonzero"/><path fill="#1db954" d="M 162.964844 274.65625 L 162.964844 288.207031 L 166.257812 288.207031 C 168.089844 288.207031 169.628906 288.171875 169.703125 288.097656 C 169.8125 288.0625 169.921875 282.019531 169.996094 274.65625 L 170.105469 261.292969 L 166.550781 261.179688 L 162.964844 261.070312 Z M 162.964844 274.65625 " fill-opacity="1" fill-rule="nonzero"/><path fill="#1db954" d="M 243.53125 271.617188 C 243.53125 277.441406 243.640625 283.519531 243.785156 285.167969 L 244.007812 288.207031 L 250.855469 288.207031 L 250.855469 261.109375 L 243.53125 261.109375 Z M 243.53125 271.617188 " fill-opacity="1" fill-rule="nonzero"/></svg>