<svg xmlns="http://www.w3.org/2000/svg" xmlns:xlink="http://www.w3.org/1999/xlink" width="500" zoomAndPan="magnify" viewBox="0 0 375 374.999991" height="500" preserveAspectRatio="xMidYMid meet" version="1.0"><defs><clipPath id="7b0642a12c"><path d="M 75 0 L 300 0 C 341.421875 0 375 33.578125 375 75 L 375 300 C 375 341.421875 341.421875 375 300 375 L 75 375 C 33.578125 375 0 341.421875 0 300 L 0 75 C 0 33.578125 33.578125 0 75 0 Z M 75 0 " clip-rule="nonzero"/></clipPath></defs><g clip-path="url(#7b0642a12c)"><rect x="-37.5" width="450" fill="#1db954" y="-37.499999" height="449.999989" fill-opacity="1"/></g><path fill="#222222" d="M 179.46875 39.246094 C 146.480469 41.441406 117.046875 53.699219 92.15625 75.714844 C 60.527344 103.558594 42.898438 142.828125 42.898438 185.421875 C 42.898438 218.335938 53.339844 249.28125 73.46875 275.914062 C 93.59375 302.46875 122.949219 321.839844 154.574219 329.253906 C 167.738281 332.355469 175.15625 333.1875 178.332031 331.824219 C 183.476562 329.632812 190.136719 324.03125 193.3125 319.191406 C 197.398438 313.136719 199.214844 306.933594 200.726562 294.675781 C 202.695312 278.484375 206.023438 269.179688 213.589844 258.664062 C 217.75 252.914062 226.601562 245.648438 235 241.261719 C 242.039062 237.476562 242.1875 237.402344 238.859375 237.78125 C 226.601562 239.21875 210.335938 248.976562 201.410156 260.25 C 196.792969 266.078125 191.949219 273.792969 191.949219 275.308594 C 191.875 276.140625 191.648438 276.0625 190.816406 275.003906 C 189.53125 273.265625 189.304688 273.945312 190.4375 276.0625 C 190.96875 277.125 190.890625 277.804688 190.058594 278.636719 C 189.453125 279.242188 188.925781 280.378906 188.925781 281.132812 C 188.847656 282.570312 188.546875 281.964844 184.082031 273.417969 C 179.316406 263.957031 162.671875 246.558594 158.507812 246.558594 C 157.753906 246.558594 157.148438 246.179688 157.148438 245.800781 C 157.148438 245.347656 156.691406 245.042969 156.089844 245.042969 C 155.484375 245.042969 154.878906 244.816406 154.726562 244.4375 C 153.816406 242.320312 126.882812 232.558594 126.882812 234.375 C 126.882812 234.679688 127.867188 235.433594 129 236.117188 C 134.375 239.292969 151.09375 257.90625 151.09375 260.707031 C 151.09375 261.007812 149.808594 261.386719 148.21875 261.460938 C 146.707031 261.613281 143.226562 262.066406 140.5 262.597656 C 137.777344 263.125 130.96875 263.503906 125.292969 263.582031 L 115.003906 263.582031 L 117.578125 266.757812 C 124.6875 275.460938 139.519531 284.234375 153.0625 287.792969 C 155.484375 288.398438 160.550781 289.152344 164.183594 289.457031 L 170.839844 289.910156 L 170.386719 287.714844 C 168.496094 279.46875 167.4375 276.214844 164.789062 270.84375 C 163.046875 267.515625 160.097656 262.824219 158.207031 260.476562 C 155.105469 256.695312 154.953125 256.316406 156.921875 257.753906 C 163.730469 262.597656 171.675781 275.230469 175.382812 287.035156 C 176.820312 291.652344 178.863281 309.882812 178.03125 310.71875 C 177.121094 311.550781 164.5625 309.28125 155.785156 306.632812 C 145.796875 303.605469 133.3125 297.929688 123.855469 291.953125 C 99.644531 276.746094 80.578125 252.308594 71.726562 225.144531 C 66.65625 209.632812 65.976562 204.640625 65.976562 185.273438 C 66.050781 169.835938 66.203125 167.417969 68.019531 159.167969 C 71.425781 143.128906 77.929688 128.300781 87.84375 113.773438 C 93.367188 105.601562 107.210938 91.527344 116.667969 84.417969 C 128.773438 75.261719 147.386719 67.089844 164.484375 63.308594 C 170.765625 61.871094 174.398438 61.644531 188.167969 61.644531 C 202.46875 61.566406 205.34375 61.792969 212.226562 63.308594 C 222.820312 65.652344 230.160156 68.226562 239.617188 72.691406 C 252.175781 78.589844 261.632812 85.097656 272.757812 95.613281 C 291.972656 113.699219 304.761719 137.832031 309.679688 165.222656 C 311.34375 174.453125 311.570312 195.03125 310.058594 203.429688 C 308.695312 211.449219 305.742188 222.800781 303.472656 229.304688 C 300.597656 237.476562 293.261719 251.246094 287.433594 259.417969 C 280.699219 268.953125 266.097656 283.554688 257.398438 289.304688 C 248.773438 295.054688 235.832031 301.5625 227.359375 304.4375 L 220.777344 306.632812 L 219.492188 312.304688 C 218.808594 315.40625 217.144531 320.929688 215.785156 324.488281 C 214.421875 328.042969 213.4375 330.992188 213.515625 331.144531 C 213.96875 331.675781 226.679688 328.269531 234.167969 325.621094 C 291.972656 305.421875 329.578125 255.105469 333.8125 192.082031 C 334.796875 177.101562 331.695312 154.933594 326.171875 138.363281 C 318.910156 116.34375 302.566406 91.300781 285.921875 76.472656 C 255.65625 49.6875 218.355469 36.675781 179.46875 39.246094 Z M 179.46875 39.246094 " fill-opacity="1" fill-rule="nonzero"/><path fill="#222222" d="M 175.683594 97.960938 C 163.730469 99.777344 150.566406 103.785156 140.957031 108.628906 C 128.625 114.832031 114.171875 126.105469 112.054688 131.328125 C 108.953125 138.664062 113.71875 146.683594 121.132812 146.683594 C 124.839844 146.683594 127.335938 145.324219 133.464844 139.800781 C 147.460938 127.316406 161.535156 121.261719 181.207031 119.296875 C 204.132812 116.875 227.359375 124.742188 244.382812 140.558594 C 249.980469 145.851562 251.496094 146.683594 255.128906 146.683594 C 261.027344 146.683594 266.097656 141.917969 266.097656 136.394531 C 266.097656 131.855469 264.8125 129.585938 259.289062 124.515625 C 247.105469 113.242188 231.066406 104.695312 213.289062 100.003906 C 206.933594 98.339844 204.054688 98.035156 191.949219 97.882812 C 184.234375 97.734375 176.96875 97.808594 175.683594 97.960938 Z M 175.683594 97.960938 " fill-opacity="1" fill-rule="nonzero"/><path fill="#222222" d="M 178.40625 137.757812 C 163.351562 139.875 144.816406 149.9375 141.5625 157.808594 C 139.292969 163.027344 141.03125 168.929688 145.570312 171.730469 C 149.734375 174.300781 154.5 173.46875 160.023438 169.230469 C 168.949219 162.347656 175.304688 159.773438 185.746094 159.09375 C 197.324219 158.261719 206.023438 160.910156 215.558594 168.097656 C 220.851562 172.03125 222.214844 172.710938 225.542969 172.9375 C 231.75 173.394531 236.289062 169.6875 237.121094 163.480469 C 237.953125 157.050781 231.976562 150.46875 219.566406 144.265625 C 206.476562 137.757812 193.238281 135.640625 178.40625 137.757812 Z M 178.40625 137.757812 " fill-opacity="1" fill-rule="nonzero"/><path fill="#222222" d="M 180.980469 180.277344 C 174.09375 183.53125 170.539062 189.128906 170.539062 196.621094 C 170.539062 213.113281 189.90625 220.679688 201.785156 208.800781 C 209.050781 201.464844 208.898438 190.871094 201.410156 183.609375 C 195.960938 178.386719 187.789062 177.023438 180.980469 180.277344 Z M 180.980469 180.277344 " fill-opacity="1" fill-rule="nonzero"/><path fill="#222222" d="M 125.21875 210.769531 C 125.75 210.996094 126.429688 210.921875 126.65625 210.695312 C 126.957031 210.46875 126.503906 210.238281 125.671875 210.316406 C 124.839844 210.316406 124.613281 210.542969 125.21875 210.769531 Z M 125.21875 210.769531 " fill-opacity="1" fill-rule="nonzero"/><path fill="#222222" d="M 162.445312 225.675781 C 162.445312 225.824219 163.046875 226.429688 163.804688 226.960938 C 164.941406 227.945312 165.015625 227.867188 164.03125 226.660156 C 163.046875 225.449219 162.445312 225.070312 162.445312 225.675781 Z M 162.445312 225.675781 " fill-opacity="1" fill-rule="nonzero"/><path fill="#222222" d="M 241.128906 242.925781 C 228.191406 253.214844 221.003906 266.683594 219.492188 283.480469 L 218.960938 289.152344 L 221.914062 288.546875 C 229.328125 287.1875 239.617188 282.722656 247.410156 277.425781 C 252.328125 274.097656 261.40625 265.851562 260.800781 265.246094 C 260.574219 265.019531 256.640625 264.414062 252.101562 263.957031 C 243.25 262.976562 233.714844 261.386719 233.035156 260.707031 C 232.582031 260.175781 238.332031 249.660156 240.675781 246.707031 C 243.25 243.453125 246.503906 238.992188 246.273438 238.992188 C 246.125 238.992188 243.855469 240.730469 241.128906 242.925781 Z M 241.128906 242.925781 " fill-opacity="1" fill-rule="nonzero"/><path fill="#222222" d="M 182.949219 256.847656 C 182.949219 257.679688 183.175781 257.90625 183.402344 257.300781 C 183.628906 256.769531 183.550781 256.089844 183.324219 255.863281 C 183.097656 255.558594 182.871094 256.015625 182.949219 256.847656 Z M 182.949219 256.847656 " fill-opacity="1" fill-rule="nonzero"/></svg>